<mxfile host="Electron" modified="2024-11-26T06:44:42.239Z" agent="Mozilla/5.0 (Windows NT 10.0; Win64; x64) AppleWebKit/537.36 (KHTML, like Gecko) draw.io/22.0.3 Chrome/114.0.5735.289 Electron/25.8.4 Safari/537.36" etag="thkGQ1mPzlF8dVKGQxjG" version="22.0.3" type="device">
  <diagram name="Página-1" id="vKnopNNjBSFKflHY04JD">
    <mxGraphModel dx="978" dy="566" grid="1" gridSize="10" guides="1" tooltips="1" connect="1" arrows="1" fold="1" page="1" pageScale="1" pageWidth="827" pageHeight="1169" math="0" shadow="0">
      <root>
        <mxCell id="0" />
        <mxCell id="1" parent="0" />
        <mxCell id="2qRy2jP1kvWIwuwrYOEl-6" value="" style="edgeStyle=orthogonalEdgeStyle;rounded=0;orthogonalLoop=1;jettySize=auto;html=1;" parent="1" source="2qRy2jP1kvWIwuwrYOEl-1" target="2qRy2jP1kvWIwuwrYOEl-2" edge="1">
          <mxGeometry relative="1" as="geometry" />
        </mxCell>
        <mxCell id="2qRy2jP1kvWIwuwrYOEl-1" value="&lt;b&gt;Inicio&lt;/b&gt;" style="rounded=1;whiteSpace=wrap;html=1;fillColor=#d5e8d4;strokeColor=#82b366;" parent="1" vertex="1">
          <mxGeometry x="120" y="200" width="120" height="60" as="geometry" />
        </mxCell>
        <mxCell id="2qRy2jP1kvWIwuwrYOEl-7" value="" style="edgeStyle=orthogonalEdgeStyle;rounded=0;orthogonalLoop=1;jettySize=auto;html=1;" parent="1" source="2qRy2jP1kvWIwuwrYOEl-2" target="2qRy2jP1kvWIwuwrYOEl-3" edge="1">
          <mxGeometry relative="1" as="geometry" />
        </mxCell>
        <mxCell id="2qRy2jP1kvWIwuwrYOEl-2" value="Inicializar MPI" style="rounded=0;whiteSpace=wrap;html=1;fillColor=#dae8fc;strokeColor=#6c8ebf;" parent="1" vertex="1">
          <mxGeometry x="270" y="200" width="120" height="60" as="geometry" />
        </mxCell>
        <mxCell id="2qRy2jP1kvWIwuwrYOEl-8" value="" style="edgeStyle=orthogonalEdgeStyle;rounded=0;orthogonalLoop=1;jettySize=auto;html=1;" parent="1" source="2qRy2jP1kvWIwuwrYOEl-3" target="2qRy2jP1kvWIwuwrYOEl-4" edge="1">
          <mxGeometry relative="1" as="geometry" />
        </mxCell>
        <mxCell id="2qRy2jP1kvWIwuwrYOEl-13" value="True" style="edgeLabel;html=1;align=center;verticalAlign=middle;resizable=0;points=[];" parent="2qRy2jP1kvWIwuwrYOEl-8" vertex="1" connectable="0">
          <mxGeometry x="-0.12" relative="1" as="geometry">
            <mxPoint as="offset" />
          </mxGeometry>
        </mxCell>
        <mxCell id="2qRy2jP1kvWIwuwrYOEl-11" value="" style="edgeStyle=orthogonalEdgeStyle;rounded=0;orthogonalLoop=1;jettySize=auto;html=1;" parent="1" source="2qRy2jP1kvWIwuwrYOEl-3" target="2qRy2jP1kvWIwuwrYOEl-10" edge="1">
          <mxGeometry relative="1" as="geometry" />
        </mxCell>
        <mxCell id="2qRy2jP1kvWIwuwrYOEl-14" value="False" style="edgeLabel;html=1;align=center;verticalAlign=middle;resizable=0;points=[];" parent="2qRy2jP1kvWIwuwrYOEl-11" vertex="1" connectable="0">
          <mxGeometry x="-0.0667" y="1" relative="1" as="geometry">
            <mxPoint as="offset" />
          </mxGeometry>
        </mxCell>
        <mxCell id="2qRy2jP1kvWIwuwrYOEl-3" value="rank&lt;br&gt;==&lt;br&gt;0" style="rhombus;whiteSpace=wrap;html=1;fillColor=#e1d5e7;strokeColor=#9673a6;" parent="1" vertex="1">
          <mxGeometry x="430" y="190" width="80" height="80" as="geometry" />
        </mxCell>
        <mxCell id="2qRy2jP1kvWIwuwrYOEl-9" value="" style="edgeStyle=orthogonalEdgeStyle;rounded=0;orthogonalLoop=1;jettySize=auto;html=1;" parent="1" source="2qRy2jP1kvWIwuwrYOEl-4" target="2qRy2jP1kvWIwuwrYOEl-5" edge="1">
          <mxGeometry relative="1" as="geometry" />
        </mxCell>
        <mxCell id="2qRy2jP1kvWIwuwrYOEl-53" value="" style="edgeStyle=orthogonalEdgeStyle;rounded=0;orthogonalLoop=1;jettySize=auto;html=1;entryX=1;entryY=0.5;entryDx=0;entryDy=0;" parent="1" source="2qRy2jP1kvWIwuwrYOEl-4" target="2qRy2jP1kvWIwuwrYOEl-55" edge="1">
          <mxGeometry relative="1" as="geometry">
            <mxPoint x="360" y="110" as="targetPoint" />
          </mxGeometry>
        </mxCell>
        <mxCell id="2qRy2jP1kvWIwuwrYOEl-54" value="Error" style="edgeLabel;html=1;align=center;verticalAlign=middle;resizable=0;points=[];" parent="2qRy2jP1kvWIwuwrYOEl-53" vertex="1" connectable="0">
          <mxGeometry x="-0.125" y="2" relative="1" as="geometry">
            <mxPoint as="offset" />
          </mxGeometry>
        </mxCell>
        <mxCell id="2qRy2jP1kvWIwuwrYOEl-4" value="Comprobaciones de parámetros" style="rounded=0;whiteSpace=wrap;html=1;fillColor=#dae8fc;strokeColor=#6c8ebf;" parent="1" vertex="1">
          <mxGeometry x="410" y="80" width="120" height="60" as="geometry" />
        </mxCell>
        <mxCell id="2qRy2jP1kvWIwuwrYOEl-12" value="" style="edgeStyle=orthogonalEdgeStyle;rounded=0;orthogonalLoop=1;jettySize=auto;html=1;" parent="1" source="2qRy2jP1kvWIwuwrYOEl-5" target="2qRy2jP1kvWIwuwrYOEl-10" edge="1">
          <mxGeometry relative="1" as="geometry" />
        </mxCell>
        <mxCell id="2qRy2jP1kvWIwuwrYOEl-5" value="Tamaño matriz" style="rounded=0;whiteSpace=wrap;html=1;fillColor=#dae8fc;strokeColor=#6c8ebf;" parent="1" vertex="1">
          <mxGeometry x="570" y="80" width="120" height="60" as="geometry" />
        </mxCell>
        <mxCell id="2qRy2jP1kvWIwuwrYOEl-16" value="" style="edgeStyle=orthogonalEdgeStyle;rounded=0;orthogonalLoop=1;jettySize=auto;html=1;" parent="1" source="2qRy2jP1kvWIwuwrYOEl-10" target="2qRy2jP1kvWIwuwrYOEl-15" edge="1">
          <mxGeometry relative="1" as="geometry" />
        </mxCell>
        <mxCell id="2qRy2jP1kvWIwuwrYOEl-10" value="Reservar memoria para todo" style="whiteSpace=wrap;html=1;fillColor=#dae8fc;strokeColor=#6c8ebf;" parent="1" vertex="1">
          <mxGeometry x="570" y="200" width="120" height="60" as="geometry" />
        </mxCell>
        <mxCell id="2qRy2jP1kvWIwuwrYOEl-18" value="" style="edgeStyle=orthogonalEdgeStyle;rounded=0;orthogonalLoop=1;jettySize=auto;html=1;" parent="1" source="2qRy2jP1kvWIwuwrYOEl-15" target="2qRy2jP1kvWIwuwrYOEl-17" edge="1">
          <mxGeometry relative="1" as="geometry" />
        </mxCell>
        <mxCell id="2qRy2jP1kvWIwuwrYOEl-27" value="True" style="edgeLabel;html=1;align=center;verticalAlign=middle;resizable=0;points=[];" parent="2qRy2jP1kvWIwuwrYOEl-18" vertex="1" connectable="0">
          <mxGeometry x="-0.0333" y="-1" relative="1" as="geometry">
            <mxPoint as="offset" />
          </mxGeometry>
        </mxCell>
        <mxCell id="2qRy2jP1kvWIwuwrYOEl-20" value="" style="edgeStyle=orthogonalEdgeStyle;rounded=0;orthogonalLoop=1;jettySize=auto;html=1;" parent="1" source="2qRy2jP1kvWIwuwrYOEl-15" target="2qRy2jP1kvWIwuwrYOEl-19" edge="1">
          <mxGeometry relative="1" as="geometry" />
        </mxCell>
        <mxCell id="2qRy2jP1kvWIwuwrYOEl-26" value="False" style="edgeLabel;html=1;align=center;verticalAlign=middle;resizable=0;points=[];" parent="2qRy2jP1kvWIwuwrYOEl-20" vertex="1" connectable="0">
          <mxGeometry x="-0.2333" y="2" relative="1" as="geometry">
            <mxPoint as="offset" />
          </mxGeometry>
        </mxCell>
        <mxCell id="2qRy2jP1kvWIwuwrYOEl-15" value="rank&lt;br&gt;==&lt;br&gt;0" style="rhombus;whiteSpace=wrap;html=1;fillColor=#e1d5e7;strokeColor=#9673a6;" parent="1" vertex="1">
          <mxGeometry x="590" y="320" width="80" height="80" as="geometry" />
        </mxCell>
        <mxCell id="2qRy2jP1kvWIwuwrYOEl-22" value="" style="edgeStyle=orthogonalEdgeStyle;rounded=0;orthogonalLoop=1;jettySize=auto;html=1;" parent="1" source="2qRy2jP1kvWIwuwrYOEl-17" target="2qRy2jP1kvWIwuwrYOEl-21" edge="1">
          <mxGeometry relative="1" as="geometry" />
        </mxCell>
        <mxCell id="2qRy2jP1kvWIwuwrYOEl-17" value="Rellenar matrices" style="whiteSpace=wrap;html=1;fillColor=#dae8fc;strokeColor=#6c8ebf;" parent="1" vertex="1">
          <mxGeometry x="570" y="460" width="120" height="60" as="geometry" />
        </mxCell>
        <mxCell id="2qRy2jP1kvWIwuwrYOEl-25" value="" style="edgeStyle=orthogonalEdgeStyle;rounded=0;orthogonalLoop=1;jettySize=auto;html=1;" parent="1" source="2qRy2jP1kvWIwuwrYOEl-19" target="2qRy2jP1kvWIwuwrYOEl-24" edge="1">
          <mxGeometry relative="1" as="geometry" />
        </mxCell>
        <mxCell id="2qRy2jP1kvWIwuwrYOEl-19" value="Recibir matrices" style="whiteSpace=wrap;html=1;fillColor=#dae8fc;strokeColor=#6c8ebf;" parent="1" vertex="1">
          <mxGeometry x="410" y="330" width="120" height="60" as="geometry" />
        </mxCell>
        <mxCell id="2qRy2jP1kvWIwuwrYOEl-23" value="" style="edgeStyle=orthogonalEdgeStyle;rounded=0;orthogonalLoop=1;jettySize=auto;html=1;shape=link;dashed=1;" parent="1" source="2qRy2jP1kvWIwuwrYOEl-21" target="2qRy2jP1kvWIwuwrYOEl-19" edge="1">
          <mxGeometry relative="1" as="geometry" />
        </mxCell>
        <mxCell id="2qRy2jP1kvWIwuwrYOEl-28" style="edgeStyle=orthogonalEdgeStyle;rounded=0;orthogonalLoop=1;jettySize=auto;html=1;entryX=0.5;entryY=1;entryDx=0;entryDy=0;" parent="1" source="2qRy2jP1kvWIwuwrYOEl-21" target="2qRy2jP1kvWIwuwrYOEl-24" edge="1">
          <mxGeometry relative="1" as="geometry" />
        </mxCell>
        <mxCell id="2qRy2jP1kvWIwuwrYOEl-21" value="Enviar matrices" style="whiteSpace=wrap;html=1;fillColor=#dae8fc;strokeColor=#6c8ebf;" parent="1" vertex="1">
          <mxGeometry x="410" y="460" width="120" height="60" as="geometry" />
        </mxCell>
        <mxCell id="ScH7PCMR64pZrLMH44OX-2" value="" style="edgeStyle=orthogonalEdgeStyle;rounded=0;orthogonalLoop=1;jettySize=auto;html=1;" edge="1" parent="1" source="2qRy2jP1kvWIwuwrYOEl-24" target="ScH7PCMR64pZrLMH44OX-1">
          <mxGeometry relative="1" as="geometry" />
        </mxCell>
        <mxCell id="2qRy2jP1kvWIwuwrYOEl-24" value="Multiplicar" style="whiteSpace=wrap;html=1;fillColor=#dae8fc;strokeColor=#6c8ebf;" parent="1" vertex="1">
          <mxGeometry x="270" y="330" width="120" height="60" as="geometry" />
        </mxCell>
        <mxCell id="2qRy2jP1kvWIwuwrYOEl-38" value="" style="edgeStyle=orthogonalEdgeStyle;rounded=0;orthogonalLoop=1;jettySize=auto;html=1;" parent="1" source="2qRy2jP1kvWIwuwrYOEl-33" target="2qRy2jP1kvWIwuwrYOEl-37" edge="1">
          <mxGeometry relative="1" as="geometry" />
        </mxCell>
        <mxCell id="2qRy2jP1kvWIwuwrYOEl-33" value="0" style="ellipse;whiteSpace=wrap;html=1;aspect=fixed;fillColor=#fff2cc;strokeColor=#d6b656;" parent="1" vertex="1">
          <mxGeometry x="80" y="440" width="40" height="40" as="geometry" />
        </mxCell>
        <mxCell id="2qRy2jP1kvWIwuwrYOEl-40" value="" style="edgeStyle=orthogonalEdgeStyle;rounded=0;orthogonalLoop=1;jettySize=auto;html=1;" parent="1" source="2qRy2jP1kvWIwuwrYOEl-34" target="2qRy2jP1kvWIwuwrYOEl-39" edge="1">
          <mxGeometry relative="1" as="geometry" />
        </mxCell>
        <mxCell id="2qRy2jP1kvWIwuwrYOEl-34" value="!= 0" style="ellipse;whiteSpace=wrap;html=1;aspect=fixed;fillColor=#fff2cc;strokeColor=#d6b656;" parent="1" vertex="1">
          <mxGeometry x="240" y="440" width="40" height="40" as="geometry" />
        </mxCell>
        <mxCell id="2qRy2jP1kvWIwuwrYOEl-41" value="" style="edgeStyle=orthogonalEdgeStyle;rounded=0;orthogonalLoop=1;jettySize=auto;html=1;shape=link;dashed=1;" parent="1" source="2qRy2jP1kvWIwuwrYOEl-37" target="2qRy2jP1kvWIwuwrYOEl-39" edge="1">
          <mxGeometry relative="1" as="geometry" />
        </mxCell>
        <mxCell id="2qRy2jP1kvWIwuwrYOEl-43" style="edgeStyle=orthogonalEdgeStyle;rounded=0;orthogonalLoop=1;jettySize=auto;html=1;entryX=0.5;entryY=0;entryDx=0;entryDy=0;" parent="1" source="2qRy2jP1kvWIwuwrYOEl-37" target="2qRy2jP1kvWIwuwrYOEl-42" edge="1">
          <mxGeometry relative="1" as="geometry" />
        </mxCell>
        <mxCell id="2qRy2jP1kvWIwuwrYOEl-37" value="Recibir multiplicación" style="whiteSpace=wrap;html=1;fillColor=#dae8fc;strokeColor=#6c8ebf;" parent="1" vertex="1">
          <mxGeometry x="40" y="540" width="120" height="60" as="geometry" />
        </mxCell>
        <mxCell id="2qRy2jP1kvWIwuwrYOEl-44" style="edgeStyle=orthogonalEdgeStyle;rounded=0;orthogonalLoop=1;jettySize=auto;html=1;entryX=0.5;entryY=0;entryDx=0;entryDy=0;" parent="1" source="2qRy2jP1kvWIwuwrYOEl-39" target="2qRy2jP1kvWIwuwrYOEl-42" edge="1">
          <mxGeometry relative="1" as="geometry" />
        </mxCell>
        <mxCell id="2qRy2jP1kvWIwuwrYOEl-39" value="Enviar multiplicación" style="whiteSpace=wrap;html=1;fillColor=#dae8fc;strokeColor=#6c8ebf;" parent="1" vertex="1">
          <mxGeometry x="200" y="540" width="120" height="60" as="geometry" />
        </mxCell>
        <mxCell id="2qRy2jP1kvWIwuwrYOEl-46" value="" style="edgeStyle=orthogonalEdgeStyle;rounded=0;orthogonalLoop=1;jettySize=auto;html=1;" parent="1" source="2qRy2jP1kvWIwuwrYOEl-42" target="2qRy2jP1kvWIwuwrYOEl-45" edge="1">
          <mxGeometry relative="1" as="geometry" />
        </mxCell>
        <mxCell id="2qRy2jP1kvWIwuwrYOEl-56" value="True" style="edgeLabel;html=1;align=center;verticalAlign=middle;resizable=0;points=[];" parent="2qRy2jP1kvWIwuwrYOEl-46" vertex="1" connectable="0">
          <mxGeometry x="-0.1389" y="2" relative="1" as="geometry">
            <mxPoint as="offset" />
          </mxGeometry>
        </mxCell>
        <mxCell id="2qRy2jP1kvWIwuwrYOEl-48" value="" style="edgeStyle=orthogonalEdgeStyle;rounded=0;orthogonalLoop=1;jettySize=auto;html=1;exitX=0.5;exitY=1;exitDx=0;exitDy=0;entryX=0;entryY=0.5;entryDx=0;entryDy=0;" parent="1" source="2qRy2jP1kvWIwuwrYOEl-42" target="2qRy2jP1kvWIwuwrYOEl-47" edge="1">
          <mxGeometry relative="1" as="geometry">
            <Array as="points">
              <mxPoint x="180" y="760" />
              <mxPoint x="420" y="760" />
              <mxPoint x="420" y="700" />
            </Array>
          </mxGeometry>
        </mxCell>
        <mxCell id="2qRy2jP1kvWIwuwrYOEl-57" value="False" style="edgeLabel;html=1;align=center;verticalAlign=middle;resizable=0;points=[];" parent="2qRy2jP1kvWIwuwrYOEl-48" vertex="1" connectable="0">
          <mxGeometry x="-0.5333" y="1" relative="1" as="geometry">
            <mxPoint as="offset" />
          </mxGeometry>
        </mxCell>
        <mxCell id="2qRy2jP1kvWIwuwrYOEl-58" value="False" style="edgeLabel;html=1;align=center;verticalAlign=middle;resizable=0;points=[];" parent="2qRy2jP1kvWIwuwrYOEl-48" vertex="1" connectable="0">
          <mxGeometry x="0.2667" y="-3" relative="1" as="geometry">
            <mxPoint as="offset" />
          </mxGeometry>
        </mxCell>
        <mxCell id="2qRy2jP1kvWIwuwrYOEl-42" value="rank&lt;br&gt;==&lt;br&gt;0" style="rhombus;whiteSpace=wrap;html=1;fillColor=#e1d5e7;strokeColor=#9673a6;" parent="1" vertex="1">
          <mxGeometry x="140" y="660" width="80" height="80" as="geometry" />
        </mxCell>
        <mxCell id="2qRy2jP1kvWIwuwrYOEl-49" value="" style="edgeStyle=orthogonalEdgeStyle;rounded=0;orthogonalLoop=1;jettySize=auto;html=1;" parent="1" source="2qRy2jP1kvWIwuwrYOEl-45" target="2qRy2jP1kvWIwuwrYOEl-47" edge="1">
          <mxGeometry relative="1" as="geometry" />
        </mxCell>
        <mxCell id="2qRy2jP1kvWIwuwrYOEl-45" value="Mostrar matriz y tiempos de ejecucción" style="whiteSpace=wrap;html=1;fillColor=#dae8fc;strokeColor=#6c8ebf;" parent="1" vertex="1">
          <mxGeometry x="280" y="670" width="120" height="60" as="geometry" />
        </mxCell>
        <mxCell id="2qRy2jP1kvWIwuwrYOEl-51" value="" style="edgeStyle=orthogonalEdgeStyle;rounded=0;orthogonalLoop=1;jettySize=auto;html=1;" parent="1" source="2qRy2jP1kvWIwuwrYOEl-47" target="2qRy2jP1kvWIwuwrYOEl-50" edge="1">
          <mxGeometry relative="1" as="geometry" />
        </mxCell>
        <mxCell id="2qRy2jP1kvWIwuwrYOEl-47" value="Liberar memoria y finalizar MPI" style="whiteSpace=wrap;html=1;fillColor=#dae8fc;strokeColor=#6c8ebf;" parent="1" vertex="1">
          <mxGeometry x="450" y="670" width="120" height="60" as="geometry" />
        </mxCell>
        <mxCell id="2qRy2jP1kvWIwuwrYOEl-50" value="&lt;b&gt;Fin (0)&lt;/b&gt;" style="whiteSpace=wrap;html=1;fillColor=#d5e8d4;strokeColor=#82b366;" parent="1" vertex="1">
          <mxGeometry x="450" y="570" width="120" height="60" as="geometry" />
        </mxCell>
        <mxCell id="2qRy2jP1kvWIwuwrYOEl-55" value="&lt;b&gt;MPI Abort (1)&lt;/b&gt;" style="rounded=1;whiteSpace=wrap;html=1;fillColor=#f8cecc;strokeColor=#b85450;" parent="1" vertex="1">
          <mxGeometry x="230" y="80" width="120" height="60" as="geometry" />
        </mxCell>
        <mxCell id="ScH7PCMR64pZrLMH44OX-3" style="edgeStyle=orthogonalEdgeStyle;rounded=0;orthogonalLoop=1;jettySize=auto;html=1;entryX=0.5;entryY=0;entryDx=0;entryDy=0;exitX=0.5;exitY=1;exitDx=0;exitDy=0;" edge="1" parent="1" source="ScH7PCMR64pZrLMH44OX-1" target="2qRy2jP1kvWIwuwrYOEl-33">
          <mxGeometry relative="1" as="geometry" />
        </mxCell>
        <mxCell id="ScH7PCMR64pZrLMH44OX-4" style="edgeStyle=orthogonalEdgeStyle;rounded=0;orthogonalLoop=1;jettySize=auto;html=1;entryX=0.5;entryY=0;entryDx=0;entryDy=0;exitX=0.5;exitY=1;exitDx=0;exitDy=0;" edge="1" parent="1" source="ScH7PCMR64pZrLMH44OX-1" target="2qRy2jP1kvWIwuwrYOEl-34">
          <mxGeometry relative="1" as="geometry" />
        </mxCell>
        <mxCell id="ScH7PCMR64pZrLMH44OX-1" value="rank?" style="rhombus;whiteSpace=wrap;html=1;fillColor=#e1d5e7;strokeColor=#9673a6;" vertex="1" parent="1">
          <mxGeometry x="140" y="320" width="80" height="80" as="geometry" />
        </mxCell>
      </root>
    </mxGraphModel>
  </diagram>
</mxfile>
